<svg xmlns="http://www.w3.org/2000/svg" width="14" height="20" viewBox="0 0 14 20">
    <path fill="#FFF" stroke="#FFF" stroke-width=".5" d="M12.213 18.426c.936-.449 1.275-1.378.84-2.306l-1.192-2.54c-.2-.457-.53-.78-.96-.936-.414-.15-.874-.115-1.339.1l-1.468.68c-.07-.086-.147-.154-.217-.24-.106-.1-.188-.21-.276-.304-.778-.991-1.388-2.165-1.867-3.534-.236-.693-.36-1.244-.389-1.781.36-.152.728-.322 1.07-.481l.392-.182c.465-.215.812-.554.962-.966.15-.41.113-.87-.116-1.358l-.578-1.263c-.069-.146-.137-.293-.188-.433-.12-.286-.257-.58-.4-.854-.207-.44-.537-.762-.95-.913-.413-.15-.873-.115-1.332.083l-1.59.737c-.587.272-1.028.699-1.303 1.287-.43.957-.474 1.974-.48 2.66.006 1.662.33 3.34 1.019 5.25.846 2.312 2.123 4.336 3.795 6.058.635.656 1.52 1.465 2.662 1.961l.216.078c.772.282 1.54.237 2.245-.134l.025-.011c.258-.15.527-.274.814-.392.207-.067.403-.157.605-.266zm-.988-.582c-.294.136-.605.265-.894.444-.478.251-.95.262-1.47.072l-.162-.059c-.973-.455-1.77-1.17-2.365-1.772-1.584-1.629-2.779-3.542-3.575-5.714-.648-1.795-.952-3.364-.972-4.93-.017-.958.116-1.658.39-2.247.18-.38.459-.643.832-.83l1.566-.727c.22-.102.432-.126.612-.06.216.078.35.269.43.44.144.275.252.537.39.83l.205.439.584 1.245c.115.244.14.456.075.635-.065.178-.22.324-.465.438l-.391.181c-.392.182-.759.352-1.144.515l-.024.012c-.392.181-.442.487-.453.685-.007.018-.007.018.005.043.025.657.165 1.335.451 2.168.518 1.484 1.18 2.738 2.01 3.81.112.141.23.265.329.382.106.1.188.21.276.303.018.007.012.024.03.031.088.093.183.168.29.207.27.098.514-.015.588-.05l1.59-.736c.147-.069.397-.14.612-.061.216.078.325.28.412.433l1.191 2.54c.275.585-.066.907-.408 1.065-.16.104-.35.177-.545.268z"/>
</svg>
