<svg xmlns="http://www.w3.org/2000/svg" width="18" height="11" viewBox="0 0 18 11">
    <path fill="#FFF" d="M17.975.792c.139.418-.298 1.378-1.405 2.955-1.814 2.588-2.008 2.346-.513 3.842 1.44 1.438 1.745 2.127 1.787 2.222 0 0 .602 1.122-.665 1.13l-2.396.043c-.519.11-1.204-.396-1.204-.396-.9-.66-1.738-2.375-2.396-2.155 0 0-.678.234-.658 1.774.014.337-.138.513-.138.513s-.173.191-.499.22h-1.08C6.44 11.102 4.35 8.763 4.35 8.763S2.065 6.233.057 1.188C-.075.858.064.697.064.697S.202.506.604.506L3.165.484c.25.044.416.183.416.183s.152.11.228.316c.416 1.129.963 2.148.963 2.148.934 2.068 1.571 2.42 1.938 2.215 0 0 .485-.316.374-2.816-.034-.902-.27-1.313-.27-1.313C6.6.91 6.191.814 6.018.785 5.88.763 6.115.403 6.42.242 6.883 0 7.694 0 8.663 0c.761.015.97.066 1.267.132.886.235.588 1.115.588 3.241 0 .682-.124 1.635.34 1.95.193.14.678.023 1.883-2.17 0 0 .554-1.041.997-2.258.076-.22.235-.308.235-.308s.153-.096.36-.059l2.7-.022c.81-.11.942.293.942.293V.792z"/>
</svg>
