<svg xmlns="http://www.w3.org/2000/svg" width="20" height="21" viewBox="0 0 20 21">
    <path fill="#165CC8" d="M10 20.187c5.352 0 9.687-4.335 9.687-9.687 0-5.352-4.335-9.687-9.687-9.687C4.648.813.312 5.148.312 10.5c0 5.352 4.336 9.687 9.688 9.687zm0-1.875c-4.316 0-7.813-3.496-7.813-7.812 0-4.316 3.497-7.812 7.813-7.812s7.812 3.496 7.812 7.812c0 4.316-3.496 7.812-7.812 7.812zm3.07-4.18l.735-1.01c.152-.212.109-.505-.102-.657l-2.61-1.899V5.031c0-.258-.21-.468-.468-.468h-1.25c-.258 0-.469.21-.469.468v6.414c0 .149.07.29.192.38l3.316 2.41c.211.152.504.105.656-.102z"/>
</svg>
