<svg xmlns="http://www.w3.org/2000/svg" width="20" height="20" viewBox="0 0 20 20">
    <g fill="#FFF" fill-rule="evenodd">
        <path d="M18.152 14.38c0 2.11-1.711 3.822-3.822 3.822H5.702c-2.11 0-3.822-1.711-3.822-3.822V5.752c0-2.11 1.711-3.822 3.822-3.822h8.628c2.11 0 3.822 1.711 3.822 3.822v8.628zM14.232.044H5.8C2.62.044.043 2.622.043 5.801v8.431c0 3.18 2.578 5.757 5.757 5.757h8.432c3.179 0 5.756-2.577 5.756-5.757V5.801c0-3.18-2.577-5.757-5.756-5.757z"/>
        <path d="M10.016 13.42c-1.853 0-3.355-1.501-3.355-3.354 0-1.853 1.502-3.355 3.355-3.355s3.355 1.502 3.355 3.355-1.502 3.355-3.355 3.355m0-8.53c-2.858 0-5.175 2.317-5.175 5.175 0 2.858 2.317 5.175 5.175 5.175 2.858 0 5.175-2.317 5.175-5.175 0-2.858-2.317-5.175-5.175-5.175M15.363 3.489c-.665 0-1.205.54-1.205 1.205 0 .666.54 1.206 1.205 1.206.666 0 1.206-.54 1.206-1.206 0-.666-.54-1.205-1.206-1.205"/>
    </g>
</svg>
