<svg xmlns="http://www.w3.org/2000/svg" width="17" height="15" viewBox="0 0 17 15">
    <path fill="#165CC8" d="M16.18 2.977c.246 0 .445-.2.445-.446V1.344c0-.246-.2-.446-.445-.446H.445C.2.898 0 1.098 0 1.344V2.53c0 .246.2.446.445.446H16.18zm0 5.937c.246 0 .445-.2.445-.445V7.28c0-.246-.2-.445-.445-.445H.445c-.246 0-.445.2-.445.445V8.47c0 .246.2.445.445.445H16.18zm0 5.938H.445c-.246 0-.445-.2-.445-.446V13.22c0-.246.2-.446.445-.446H16.18c.246 0 .445.2.445.446v1.187c0 .246-.2.446-.445.446z"/>
</svg>
