<svg xmlns="http://www.w3.org/2000/svg" width="1033" height="394" viewBox="0 0 1033 394">
    <path fill="#FFF5F6" fill-rule="evenodd" d="M785.732 33.778c-45.684-26.38-164.823-76.98-224.076 40.39-59.253 117.394-19.32 294.188-15.893 375.157 71.86-37.527 244.993-91.342 317.04-201.343 72.071-110-31.34-187.825-77.07-214.204zM-22 499.995c0 52.76 15.705 181.23 147.029 173.838 131.347-7.393 264.526-130.372 332.958-173.838-68.432-43.465-201.61-166.42-332.958-173.813C-6.295 318.765-22 447.236-22 499.995zm1077 0c0 52.76-15.705 181.23-147.029 173.838-131.347-7.393-264.526-130.372-332.958-173.838 68.432-43.465 201.61-166.42 332.958-173.813C1039.295 318.765 1055 447.236 1055 499.995zM247.268 33.778c-45.731 26.38-149.142 104.203-77.095 214.204 72.07 110 245.205 163.816 317.064 201.343 3.428-80.969 43.36-257.763-15.893-375.157-59.253-117.37-178.392-66.77-224.076-40.39zm0 932.435C201.537 939.857 98.126 862.01 170.173 752.01c72.07-110 245.205-163.816 317.064-201.343 3.428 80.969 43.36 257.763-15.893 375.157-59.253 117.393-178.392 66.77-224.076 40.39zm538.464 0c-45.684 26.38-164.823 77.003-224.076-40.39-59.253-117.394-19.32-294.188-15.893-375.157 71.86 37.527 244.993 91.342 317.04 201.343 72.071 110-31.34 187.848-77.07 214.204z"/>
</svg>
